{
	"asset":{
		"generator":"Khronos glTF Blender I/O v4.1.62",
		"version":"2.0"
	},
	"scene":0,
	"scenes":[
		{
			"name":"Scene",
			"nodes":[
				0
			]
		}
	],
	"nodes":[
		{
			"mesh":0,
			"name":"Cube"
		}
	],
	"materials":[
		{
			"doubleSided":true,
			"name":"Material",
			"pbrMetallicRoughness":{
				"metallicFactor":0,
				"roughnessFactor":0.5
			}
		},
		{
			"doubleSided":true,
			"name":"\u30de\u30c6\u30ea\u30a2\u30eb",
			"pbrMetallicRoughness":{
				"baseColorFactor":[
					0,
					0,
					0,
					1
				],
				"metallicFactor":0,
				"roughnessFactor":0.5
			}
		}
	],
	"meshes":[
		{
			"name":"Cube",
			"primitives":[
				{
					"attributes":{
						"POSITION":0,
						"NORMAL":1,
						"TEXCOORD_0":2
					},
					"indices":3,
					"material":0
				},
				{
					"attributes":{
						"POSITION":4,
						"NORMAL":5,
						"TEXCOORD_0":6
					},
					"indices":7,
					"material":1
				}
			]
		}
	],
	"accessors":[
		{
			"bufferView":0,
			"componentType":5126,
			"count":420,
			"max":[
				1,
				3.3053505420684814,
				3.329441785812378
			],
			"min":[
				-1,
				-0.508943498134613,
				-2.7427546977996826
			],
			"type":"VEC3"
		},
		{
			"bufferView":1,
			"componentType":5126,
			"count":420,
			"type":"VEC3"
		},
		{
			"bufferView":2,
			"componentType":5126,
			"count":420,
			"type":"VEC2"
		},
		{
			"bufferView":3,
			"componentType":5123,
			"count":1176,
			"type":"SCALAR"
		},
		{
			"bufferView":4,
			"componentType":5126,
			"count":464,
			"max":[
				1,
				3.736130952835083,
				3.329441785812378
			],
			"min":[
				-1,
				-0.508943498134613,
				-2.7427546977996826
			],
			"type":"VEC3"
		},
		{
			"bufferView":5,
			"componentType":5126,
			"count":464,
			"type":"VEC3"
		},
		{
			"bufferView":6,
			"componentType":5126,
			"count":464,
			"type":"VEC2"
		},
		{
			"bufferView":7,
			"componentType":5123,
			"count":876,
			"type":"SCALAR"
		}
	],
	"bufferViews":[
		{
			"buffer":0,
			"byteLength":5040,
			"byteOffset":0,
			"target":34962
		},
		{
			"buffer":0,
			"byteLength":5040,
			"byteOffset":5040,
			"target":34962
		},
		{
			"buffer":0,
			"byteLength":3360,
			"byteOffset":10080,
			"target":34962
		},
		{
			"buffer":0,
			"byteLength":2352,
			"byteOffset":13440,
			"target":34963
		},
		{
			"buffer":0,
			"byteLength":5568,
			"byteOffset":15792,
			"target":34962
		},
		{
			"buffer":0,
			"byteLength":5568,
			"byteOffset":21360,
			"target":34962
		},
		{
			"buffer":0,
			"byteLength":3712,
			"byteOffset":26928,
			"target":34962
		},
		{
			"buffer":0,
			"byteLength":1752,
			"byteOffset":30640,
			"target":34963
		}
	],
	"buffers":[
		{
			"byteLength":32392,
			"uri":"ship.bin"
		}
	]
}
